<?xml version="1.0" standalone="no"?>
<!DOCTYPE svg PUBLIC "-//W3C//DTD SVG 20010904//EN"
 "http://www.w3.org/TR/2001/REC-SVG-20010904/DTD/svg10.dtd">
<svg version="1.0" xmlns="http://www.w3.org/2000/svg"
 width="2000.000000pt" height="2000.000000pt" viewBox="0 0 2000.000000 2000.000000"
 preserveAspectRatio="xMidYMid meet">
<metadata>
Created by potrace 1.14, written by Peter Selinger 2001-2017
</metadata>
<g transform="translate(0.000000,2000.000000) scale(0.100000,-0.100000)"
fill="#000000" stroke="none">
<path d="M0 10000 l0 -10000 10000 0 10000 0 0 10000 0 10000 -10000 0 -10000
0 0 -10000z m5063 7039 c104 -35 227 -121 405 -284 97 -89 314 -341 430 -500
25 -34 42 -47 75 -55 23 -6 52 -15 65 -20 33 -14 58 -12 73 6 13 15 54 87 110
189 12 22 55 90 95 150 196 291 331 416 433 402 64 -8 112 -65 145 -172 15
-50 34 -105 42 -123 8 -18 14 -41 14 -52 0 -11 6 -37 14 -57 8 -21 22 -65 31
-98 9 -33 25 -82 35 -110 10 -27 21 -63 24 -80 12 -71 27 -129 35 -139 5 -6
14 -33 19 -61 6 -27 20 -81 31 -120 12 -38 28 -99 36 -135 9 -36 22 -87 30
-115 7 -27 19 -99 25 -160 20 -190 18 -187 157 -260 82 -42 152 -116 209 -220
56 -103 91 -166 111 -200 12 -22 27 -49 32 -61 5 -12 40 -90 79 -175 65 -146
115 -264 149 -354 8 -22 21 -52 29 -67 8 -14 14 -33 14 -42 0 -9 4 -24 10 -34
16 -28 110 -316 110 -336 0 -10 6 -39 14 -65 23 -73 46 -177 46 -205 0 -37 30
-65 280 -261 124 -96 234 -183 246 -193 199 -166 313 -265 446 -388 98 -91
168 -137 296 -196 148 -69 218 -91 517 -164 77 -19 163 -40 190 -48 244 -68
338 -80 640 -79 200 0 299 4 380 17 159 24 282 46 345 62 30 7 80 18 110 25
105 22 140 52 140 120 0 40 -6 55 -40 97 -22 28 -46 54 -54 59 -10 5 -19 34
-25 74 -10 70 -29 116 -67 162 -27 33 -30 54 -9 81 24 32 18 61 -24 114 -43
54 -42 62 12 95 39 25 34 48 -19 86 -27 19 -44 37 -41 45 3 8 1 18 -4 23 -6 6
-1 20 13 39 28 35 31 113 5 142 -9 10 -22 43 -28 73 -11 56 -25 117 -29 134
-6 25 4 33 55 44 78 18 93 34 104 110 7 56 12 67 45 95 36 29 38 35 44 106 l7
75 43 0 c53 0 67 16 83 97 16 79 36 103 87 105 61 3 95 25 206 137 56 56 112
109 126 117 25 16 96 17 152 3 41 -10 75 3 121 45 66 60 74 62 215 59 l127 -3
98 47 98 48 59 -30 c66 -33 104 -37 170 -16 148 47 271 56 402 32 46 -9 106
-16 132 -16 26 0 67 -9 92 -20 l44 -21 -6 -62 c-5 -55 -4 -64 15 -81 15 -13
28 -17 48 -12 87 21 113 9 113 -53 0 -43 10 -57 68 -96 67 -45 80 -66 81 -137
0 -34 7 -82 15 -107 7 -25 21 -75 31 -111 9 -36 22 -76 27 -90 6 -14 14 -38
19 -55 18 -70 36 -103 73 -136 58 -50 141 -248 176 -416 16 -78 9 -103 -40
-152 -22 -22 -40 -48 -40 -58 0 -21 30 -53 68 -72 29 -16 31 -66 1 -81 -14 -8
-19 -19 -17 -38 3 -22 10 -28 51 -38 26 -7 59 -19 73 -29 23 -15 24 -20 18
-73 -7 -63 13 -132 39 -132 32 0 87 -88 87 -139 0 -17 -9 -53 -20 -81 -11 -28
-20 -55 -20 -59 0 -5 18 -31 40 -57 22 -27 40 -54 40 -61 0 -7 9 -17 20 -23
38 -20 279 -329 300 -385 5 -13 12 -24 17 -26 10 -5 93 -125 93 -135 0 -4 8
-17 19 -28 10 -12 31 -43 46 -71 15 -27 31 -55 36 -61 23 -28 212 -404 247
-489 61 -153 75 -192 116 -315 25 -74 52 -169 61 -210 10 -41 23 -97 31 -125
7 -27 16 -68 19 -90 3 -22 13 -71 21 -110 8 -38 21 -104 30 -145 8 -41 21
-106 29 -145 8 -38 22 -106 31 -150 8 -44 19 -93 24 -110 5 -16 14 -61 20
-100 6 -38 14 -83 19 -100 5 -16 16 -75 25 -130 9 -55 22 -127 27 -160 29
-163 50 -440 44 -575 -7 -136 -23 -295 -37 -365 -6 -27 -14 -79 -18 -115 -5
-36 -13 -96 -19 -135 -38 -255 -47 -609 -19 -795 35 -234 57 -303 248 -765 47
-115 86 -224 120 -335 17 -58 38 -120 46 -138 8 -18 14 -42 14 -53 0 -11 5
-30 12 -42 6 -12 15 -40 19 -62 5 -22 15 -67 23 -100 32 -126 66 -291 66 -322
0 -17 5 -44 12 -60 21 -52 47 -586 35 -728 -5 -55 -6 -190 -3 -300 3 -110 9
-334 12 -497 l7 -298 -27 -34 c-28 -37 -102 -76 -143 -76 -13 0 -52 -6 -86
-14 -118 -27 -347 -51 -347 -36 0 6 -31 10 -75 10 -44 0 -75 -4 -75 -10 0 -11
-38 -7 -160 16 -123 24 -162 41 -211 90 l-44 45 0 77 c0 73 2 80 40 136 34 50
47 61 92 75 118 39 218 143 271 281 34 90 43 133 49 231 6 107 -5 184 -43 314
-8 28 -21 73 -29 100 -8 28 -24 84 -35 125 -12 41 -35 108 -51 147 -16 40 -29
77 -29 83 0 5 -13 38 -29 72 -59 131 -75 167 -127 288 -29 69 -65 150 -80 180
-15 30 -34 75 -43 100 -15 40 -26 61 -84 150 -9 14 -37 54 -62 90 -25 36 -66
94 -91 130 -24 36 -63 90 -85 120 -22 30 -51 71 -64 90 -13 19 -51 71 -84 115
-33 44 -77 105 -97 135 -21 30 -40 57 -44 60 -5 4 -74 100 -120 166 -8 12 -40
57 -70 99 -96 136 -132 188 -291 427 -86 128 -171 258 -188 288 -18 30 -50 84
-72 120 -58 97 -122 231 -155 328 -32 89 -51 53 -53 -100 0 -48 -7 -131 -15
-185 -8 -54 -22 -231 -32 -393 -22 -385 -21 -393 109 -775 65 -188 91 -388 82
-610 -16 -370 -84 -763 -161 -932 -8 -18 -21 -47 -28 -65 -25 -59 -126 -261
-181 -363 -114 -208 -143 -274 -160 -377 -7 -46 -58 -99 -112 -117 -54 -18
-319 -27 -338 -11 -9 7 -26 9 -45 5 -46 -10 -313 14 -409 37 -93 22 -166 51
-193 75 -24 22 -23 80 2 120 23 39 107 102 135 103 45 0 199 59 276 106 71 43
166 133 183 176 47 112 102 632 94 881 -6 156 -12 178 -106 397 -40 93 -46
117 -53 210 -16 216 -59 327 -220 567 -95 141 -164 249 -171 265 -4 9 -19 36
-35 60 -30 47 -31 49 -87 153 -21 39 -44 77 -52 86 -8 8 -14 19 -14 24 0 5
-15 40 -34 79 -99 202 -138 323 -145 441 l-6 100 -90 1 c-237 2 -438 -26 -580
-79 -152 -57 -240 -86 -261 -87 -11 0 -47 -9 -80 -21 -32 -11 -79 -24 -104
-29 -88 -17 -232 -50 -239 -54 -4 -3 -34 -10 -67 -16 -32 -6 -93 -17 -134 -26
-118 -24 -221 -43 -270 -49 -25 -3 -79 -12 -120 -20 -41 -8 -140 -24 -220 -35
-80 -12 -170 -25 -200 -31 -30 -5 -113 -14 -185 -19 -71 -6 -165 -12 -207 -16
-42 -3 -92 -1 -112 4 -23 7 -36 7 -36 1 0 -13 -124 -11 -258 3 -87 9 -105 9
-113 -3 -5 -8 -9 -77 -9 -154 0 -77 -7 -255 -15 -395 -9 -140 -17 -311 -19
-380 -2 -69 -9 -195 -15 -280 -6 -85 -16 -243 -21 -350 -15 -277 -28 -478 -40
-605 -5 -60 -17 -200 -26 -310 -8 -110 -20 -236 -26 -280 -6 -44 -13 -102 -15
-130 -1 -27 -10 -97 -18 -155 -8 -58 -19 -145 -26 -195 -26 -208 -72 -424 -97
-459 -11 -16 -62 -139 -117 -286 -71 -190 -112 -269 -167 -323 -27 -26 -54
-47 -60 -47 -6 0 -19 -6 -27 -13 -47 -40 -208 -77 -386 -89 -165 -11 -454 -4
-482 11 -10 6 -35 17 -55 25 -21 8 -38 21 -38 29 0 8 -7 20 -15 27 -26 21 -33
71 -17 117 16 49 140 191 217 250 94 71 174 169 201 245 30 84 42 242 48 603
3 198 11 500 18 672 9 248 8 331 -2 405 -7 51 -15 179 -19 285 -5 154 -10 196
-22 208 -14 14 -17 10 -32 -42 -9 -32 -19 -89 -22 -127 -3 -38 -10 -87 -15
-110 -5 -23 -14 -72 -20 -111 -23 -150 -60 -361 -66 -375 -3 -8 -10 -40 -14
-70 -4 -30 -20 -113 -35 -185 -15 -71 -31 -150 -36 -175 -16 -92 -56 -274 -69
-316 -6 -16 -14 -50 -19 -75 -5 -24 -19 -75 -30 -114 -12 -38 -32 -111 -46
-161 -49 -188 -172 -478 -206 -489 -10 -3 -21 -15 -24 -26 -10 -32 -43 -46
-160 -72 -325 -72 -438 -88 -730 -103 -199 -10 -374 22 -397 73 -6 12 -19 24
-29 26 -16 4 -19 15 -19 79 0 44 5 81 13 93 7 11 22 43 32 70 38 103 132 216
193 232 29 7 97 -1 182 -23 149 -37 238 -28 316 31 35 27 74 101 74 141 0 14
5 34 10 44 15 28 34 357 34 565 -1 158 -19 566 -29 665 -2 19 -9 117 -14 218
-6 101 -13 187 -16 192 -3 4 -8 77 -11 162 -3 84 -9 169 -15 188 -5 19 -9 64
-10 100 0 36 -4 88 -9 115 -4 28 -13 88 -19 135 -6 47 -18 117 -26 155 -26
130 -36 180 -41 210 -24 146 -68 381 -80 427 -7 32 -14 72 -14 90 -1 18 -7 60
-15 93 -8 33 -15 83 -15 110 -1 82 -57 291 -148 550 -55 156 -59 166 -96 247
-14 31 -26 61 -26 66 0 10 -33 88 -75 177 -86 183 -120 257 -142 310 -14 33
-28 65 -33 70 -4 6 -31 64 -60 130 -29 66 -65 148 -81 183 -16 35 -32 74 -35
88 -3 13 -10 27 -15 30 -5 3 -9 11 -9 19 0 8 -13 42 -29 77 -16 35 -39 90 -51
123 -12 33 -31 83 -42 110 -10 28 -34 97 -53 155 -19 58 -40 119 -46 135 -6
17 -15 44 -19 60 -5 17 -18 62 -30 100 -11 39 -27 105 -35 148 -8 43 -18 83
-21 89 -4 6 -10 128 -15 272 -17 572 -21 657 -34 801 -8 83 -16 194 -20 247
-3 53 -7 102 -10 110 -2 7 -9 72 -15 143 -11 143 -32 325 -55 480 -8 55 -17
127 -20 160 -13 127 -33 238 -69 375 l-22 85 -34 -1 c-19 0 -80 -11 -135 -23
-121 -28 -223 -39 -415 -47 -245 -11 -371 20 -471 113 l-51 48 -172 0 c-168 0
-172 0 -228 29 -52 25 -58 31 -58 60 0 67 36 110 285 340 139 129 177 158 243
186 28 12 52 28 52 35 0 17 -45 38 -67 31 -11 -4 -33 0 -49 9 -16 8 -34 15
-40 15 -28 0 -216 91 -276 134 -119 84 -186 192 -195 316 -4 48 -12 75 -31
104 -40 58 -55 104 -59 181 -4 68 -3 71 31 111 20 23 55 50 78 59 39 16 187
58 248 71 127 26 672 213 750 257 53 30 48 21 115 187 55 138 170 370 231 467
77 123 119 182 129 183 6 0 23 16 38 35 15 19 42 42 59 51 34 18 34 -15 3 264
-9 80 -20 235 -24 345 -4 111 -12 209 -18 220 -6 11 -14 45 -18 75 -4 30 -12
63 -17 73 -12 24 -2 70 23 102 25 31 58 32 142 4z"/>
</g>
</svg>
